<?xml version="1.0" encoding="UTF-8"?>
<svg id="Camada_1" xmlns="http://www.w3.org/2000/svg" version="1.1" viewBox="0 0 350 150">
  <!-- Generator: Adobe Illustrator 30.7.0, SVG Export Plug-In . SVG Version: 2.1.4 Build 114)  -->
  <defs>
    <style>
      .st0 {
        font-family: CalistoMT, 'Calisto MT';
        font-size: 29.34px;
      }

      .st0, .st1 {
        fill: #f06022;
      }

      .st2 {
        fill: #203062;
      }

      .st1 {
        fill-rule: evenodd;
      }
    </style>
  </defs>
  <g>
    <path class="st1" d="M6.16,29.73c2.55,6.4,11.73,4.4,19.8,4.4,10.54,0,36.18-1.59,44.49,2.61,18.02,9.12,20.02,32.82,3.95,45.19-9.79,7.53-28,5.06-42.02,5.08-1.27-30.29,5.89-26.38-26.55-26.43-.15,3.95-.11,7.91-.1,11.86,0,1.28,0,2.56,0,3.83-.03,6.05-.53,9.79,5.44,10.62l21.21.12.13,21.87c1.37,5.35,4.58,4.74,10.55,4.71,4.99-.03,9.99.03,14.98-.02,24.04-.24,43.79-14.01,51.39-37.27,5.61-17.17.56-35.72-7.84-47.15-6.14-8.36-20.98-21.21-37.92-21.22l-57.86-.29.35,22.08Z"/>
    <g>
      <path class="st2" d="M126.69,7.95h21.33v57.23c0,9.08.26,14.97.79,17.66.91,4.32,3.09,7.8,6.52,10.42,3.43,2.62,8.13,3.93,14.09,3.93s10.62-1.24,13.69-3.71c3.07-2.47,4.92-5.51,5.55-9.12.62-3.6.94-9.59.94-17.95V7.95h21.33v55.5c0,12.69-.58,21.65-1.73,26.88-1.15,5.24-3.28,9.66-6.38,13.26s-7.24,6.48-12.43,8.61c-5.19,2.14-11.96,3.21-20.33,3.21-10.09,0-17.74-1.17-22.96-3.5-5.21-2.33-9.33-5.36-12.36-9.08-3.03-3.72-5.02-7.63-5.98-11.71-1.39-6.05-2.09-14.99-2.09-26.81V7.95Z"/>
      <path class="st2" d="M234.01,113.61V8.81h21.33v87h53.05v17.8h-74.38Z"/>
      <path class="st2" d="M322.95,113.61V7.95h21.33v105.66h-21.33Z"/>
    </g>
  </g>
  <text class="st0" transform="translate(208.14 142.36)"><tspan x="0" y="0">Consulting</tspan></text>
</svg>